<?xml version="1.0" standalone="no"?>
<!DOCTYPE svg PUBLIC "-//W3C//DTD SVG 20010904//EN"
 "http://www.w3.org/TR/2001/REC-SVG-20010904/DTD/svg10.dtd">
<svg version="1.0" xmlns="http://www.w3.org/2000/svg"
 width="155.000000pt" height="155.000000pt" viewBox="0 0 155.000000 155.000000"
 preserveAspectRatio="xMidYMid meet">
<metadata>
Created by potrace 1.11, written by Peter Selinger 2001-2013
</metadata>
<g transform="translate(0.000000,155.000000) scale(0.100000,-0.100000)"
fill="#000000" stroke="none">
<path d="M0 775 l0 -775 775 0 775 0 0 775 0 775 -775 0 -775 0 0 -775z m394
339 c39 -38 11 -171 -59 -289 -38 -62 -41 -88 -12 -93 31 -6 66 25 72 65 14
81 25 103 52 103 21 0 24 -3 19 -22 -3 -13 -9 -47 -12 -75 -11 -89 26 -62 61
45 14 44 20 52 41 52 19 0 24 -4 20 -17 -19 -68 -27 -136 -17 -146 19 -19 45
19 61 91 14 61 18 67 40 67 19 0 24 -5 23 -20 -15 -120 -15 -133 -4 -140 19
-11 56 30 93 101 31 60 56 83 77 70 6 -4 5 -17 -1 -34 -9 -23 -7 -33 16 -66
14 -21 26 -50 26 -64 0 -55 -78 -95 -110 -57 -18 21 -5 45 25 45 28 0 32 17
10 46 -15 19 -15 19 -27 -1 -6 -11 -29 -37 -50 -57 -42 -41 -86 -50 -108 -23
-11 13 -15 13 -33 0 -12 -8 -34 -15 -50 -15 -22 0 -31 7 -42 33 -8 17 -14 26
-15 18 0 -21 -30 -51 -50 -51 -10 0 -23 7 -30 15 -11 13 -15 13 -41 0 -40 -21
-75 -19 -98 7 -28 29 -35 75 -28 167 15 180 92 305 151 245z m317 -120 c19
-23 -1 -49 -37 -49 -23 0 -30 5 -32 24 -6 39 43 56 69 25z m487 -114 c44 -41
40 -123 -8 -172 -39 -39 -82 -38 -122 2 -28 28 -30 35 -26 82 4 42 11 57 37
80 38 34 87 37 119 8z m140 -148 c5 -32 -16 -54 -47 -50 -18 2 -27 10 -29 26
-6 40 5 54 40 50 26 -2 34 -8 36 -26z"/>
<path d="M325 1027 c-8 -29 -19 -84 -23 -121 -8 -67 -8 -68 9 -45 24 32 59
141 59 184 0 55 -27 45 -45 -18z"/>
<path d="M1112 838 c-13 -13 -16 -66 -6 -92 16 -41 64 -5 64 48 0 52 -28 74
-58 44z"/>
</g>
</svg>
