<?xml version="1.0" encoding="utf-8"?>
<!-- Generator: Adobe Illustrator 21.1.0, SVG Export Plug-In . SVG Version: 6.00 Build 0)  -->
<svg version="1.1" id="Layer_2" xmlns="http://www.w3.org/2000/svg" xmlns:xlink="http://www.w3.org/1999/xlink" x="0px" y="0px"
	 viewBox="0 0 248.8 55.9" style="enable-background:new 0 0 248.8 55.9;" xml:space="preserve">
<style type="text/css">
	.st0{fill:#FFFFFF;}
</style>
<g>
	<path class="st0" d="M50.2,32.4c-3.6,0-5.6,1.7-7.1,3c-1.5,1.3-2.7,2.3-5.2,2.3c-2.5,0-3.7-1-5.2-2.3c-1.6-1.3-3.5-3-7.1-3
		c-3.6,0-5.6,1.7-7.1,3c-1.5,1.3-2.7,2.3-5.2,2.3c-2.5,0-3.7-1-5.2-2.3c-1.6-1.3-3.5-3-7.1-3H0.4v3H1c2.5,0,3.7,1,5.2,2.3
		c1.6,1.3,3.5,3,7.1,3c3.6,0,5.6-1.7,7.1-3c1.5-1.3,2.7-2.3,5.2-2.3c2.5,0,3.7,1,5.2,2.3c1.6,1.3,3.5,3,7.1,3c3.6,0,5.6-1.7,7.1-3
		c1.5-1.3,2.7-2.3,5.2-2.3h0.5v-3H50.2z"/>
	<path class="st0" d="M34.3,17.4l-12.2-3.8l12.2-3.8V5.9L16.8,0.4v3l13.9,4.4l-13.9,4.4v2.7l13.9,4.4l-13.9,4.4v3l17.5-5.5V17.4z"/>
	<path class="st0" d="M83.4,33.8v-1.5l3.7-1.1V10.9h-3.8V9.4l8.4-2.5l0,24.3l3.7,1.1v1.5H83.4z"/>
	<path class="st0" d="M182.8,34.2c-1.6,0-3.1-0.7-4.1-2.1c-1.5-1.9-2.1-4.8-1.6-7.2l0.1-0.3l11.1-3.5c-0.3-2-0.9-3.2-2-3.9l-7.4,2.3
		l-0.7-2.2l8.9-2.8l0.1,0c3.9,1.1,5.8,4.3,5.8,9.4l0,7.1l3.7,1.1v1.5l-6.7,0l-1.2-1.3l-5.9,1.8L182.8,34.2
		C182.8,34.2,182.8,34.2,182.8,34.2z M181.5,25.7c-0.4,1.7-0.1,3.6,0.7,4.8c0.3,0.4,0.9,1,1.8,1c0.5-0.1,3.1-1,4.3-1.4l0-5.8
		c0-0.2,0-0.5,0-0.7L181.5,25.7z"/>
	<path class="st0" d="M104.7,34.3c-1.9,0-3.5-0.8-4.6-2.2c-1-1.2-1.6-3-1.6-4.7V19h-3.8v-1.4l8.3-2.5v13c0,0.9,0.3,1.7,1,2.3
		c0.6,0.6,1.5,0.9,2.5,0.9c0.1,0,0.2,0,0.4,0l3.2-1l0-11.3h-3.8v-1.4l8.4-2.5v16.1l3.7,1.1v1.5h-6.8l-1.1-1.2L104.7,34.3L104.7,34.3
		z"/>
	<path class="st0" d="M128.8,34.3c-2.9,0-5.3-0.9-7-2.6c-1.7-1.7-2.6-4.3-2.6-7.2c0-6.4,3.2-9.9,9.1-9.9c2.3,0,4.3,0.7,5.7,2.1
		c1.5,1.5,2.4,3.6,2.6,6.3c0,0.4-0.3,0.5-0.4,0.5c-0.1,0-0.2,0.1-0.3,0.1c-0.3,0.1-0.7,0.2-1.2,0.4c-1,0.3-2.3,0.7-3.7,1.2
		c-2.5,0.8-5.3,1.7-6.7,2.1c0.7,3.5,2.6,4.6,4.1,5l6.8-2.1l0.7,2.2L128.8,34.3L128.8,34.3z M128.2,17c-1.4,0-2.4,0.6-3.1,1.8
		c-0.7,1.3-1.1,3.1-1.1,5.6c0,0.1,0,0.2,0,0.4l7.9-2.5c-0.1-1.7-0.5-3.1-1.1-3.9C130.2,17.5,129.3,17,128.2,17z"/>
	<path class="st0" d="M219.4,34.3c-6-0.2-9.7-3.9-9.7-9.9c0-6.4,3.2-9.9,9.1-9.9c2.3,0,4.3,0.7,5.7,2.1c1.5,1.5,2.4,3.6,2.6,6.3
		c0,0.4-0.3,0.5-0.4,0.5c-0.1,0-0.2,0.1-0.3,0.1c-0.3,0.1-0.7,0.2-1.2,0.4c-1,0.3-2.3,0.7-3.7,1.2c-2.5,0.8-5.3,1.7-6.7,2.1
		c0.6,2.4,2.2,4.4,4.1,5l6.8-2.1l0.7,2.2L219.4,34.3L219.4,34.3z M218.9,17c-1.4,0-2.4,0.6-3.1,1.8c-0.7,1.3-1.1,3.1-1.1,5.6
		c0,0.1,0,0.2,0,0.4l7.9-2.5c-0.1-1.7-0.5-3.1-1.1-3.9C220.8,17.5,220,17,218.9,17z"/>
	<path class="st0" d="M165.4,33.8l-3.9-11.2l-4,11.2h-3.4l-5.8-16.1l-3.6-1.1v-1.4h11.6v1.4l-3.3,1l3.7,10.4l4.4-12.8h2.7l4.2,12.9
		l4-10.5l-3.3-1v-1.4h7.2l-7.3,18.6H165.4z"/>
	<path class="st0" d="M203.3,33.9c-1.4-0.3-2.5-1-3.2-2.1c-0.8-1.3-1.2-3-1.2-5.4l0-8.8l-3.3-1v-1.4h3.9l1.5-4.4h2.5v4.4h5v1.4
		l-5,1.6v8.1c0,3.3,0.1,4.4,1.1,4.9l3.8-1.2l0.7,2.2l-5.6,1.7L203.3,33.9z"/>
	<path class="st0" d="M228.5,33.8v-1.5l3.7-1.1V19.1h-3.8v-1.5l8.4-2.5v1.6l6.8-2.2l0.1,0c1.9,0.6,3.4,1.6,4.3,3.2l0.3,0.5l-4.1,1.2
		l-0.2-0.4c-0.3-0.8-0.8-1.3-1.6-1.8l-5.8,1.8l0,12.1l3.7,1.1v1.5H228.5z"/>
	<path class="st0" d="M73.4,34.3c-4.8,0-7.9-1.7-8-1.8l-0.2-0.1V10.9h-3.8V9.4l8.4-2.5l0,8.9l4-1.2h0.1c6,0,9,3.2,9,9.9
		C82.8,30.8,79.4,34.3,73.4,34.3z M69.7,31.3c0.4,0.3,1.6,1,3.6,1c2.9,0,4.6-2.8,4.6-7.8c0-2.5-0.4-4.4-1.1-5.7
		c-0.7-1.2-1.7-1.8-3.1-1.8l-4,1.3V31.3z"/>
	<path class="st0" d="M193.6,51.5c0,0.7-0.1,1.2-0.3,1.7c-0.2,0.5-0.5,0.9-0.9,1.2c-0.4,0.3-0.8,0.6-1.4,0.7
		c-0.5,0.2-1.1,0.2-1.8,0.2c-0.3,0-0.7,0-1.1,0c-0.4,0-0.8-0.1-1.2-0.2v-7.4c0.4-0.1,0.8-0.1,1.2-0.1c0.4,0,0.8,0,1.1,0
		c0.6,0,1.2,0.1,1.8,0.2c0.5,0.1,1,0.4,1.4,0.7c0.4,0.3,0.7,0.7,0.9,1.2C193.5,50.2,193.6,50.8,193.6,51.5z M188.7,53.9
		c0.1,0,0.2,0,0.3,0c0.1,0,0.2,0,0.4,0c0.8,0,1.5-0.2,1.9-0.6c0.4-0.4,0.6-1,0.6-1.8c0-0.8-0.2-1.4-0.6-1.8c-0.4-0.4-1-0.6-1.9-0.6
		c-0.1,0-0.2,0-0.4,0c-0.1,0-0.2,0-0.3,0V53.9z"/>
	<path class="st0" d="M197.2,47.7h1.7v7.6h-1.7V47.7z"/>
	<path class="st0" d="M206.5,49c-0.8,0-1.4,0.2-1.7,0.7c-0.4,0.4-0.5,1-0.5,1.8c0,0.4,0,0.7,0.1,1c0.1,0.3,0.2,0.6,0.4,0.8
		c0.2,0.2,0.4,0.4,0.7,0.5c0.3,0.1,0.6,0.2,0.9,0.2c0.2,0,0.4,0,0.5,0c0.1,0,0.3,0,0.4,0v-2.6h1.7V55c-0.2,0.1-0.5,0.2-1,0.3
		c-0.5,0.1-1,0.1-1.7,0.1c-0.6,0-1.1-0.1-1.5-0.3c-0.5-0.2-0.9-0.4-1.2-0.8c-0.3-0.3-0.6-0.7-0.8-1.2c-0.2-0.5-0.3-1-0.3-1.7
		c0-0.6,0.1-1.2,0.3-1.7c0.2-0.5,0.5-0.9,0.8-1.2c0.3-0.3,0.7-0.6,1.2-0.8c0.5-0.2,1-0.3,1.5-0.3c0.4,0,0.7,0,1,0.1
		c0.3,0,0.5,0.1,0.7,0.2c0.2,0.1,0.4,0.1,0.5,0.2c0.1,0.1,0.2,0.1,0.3,0.2l-0.5,1.4c-0.2-0.1-0.5-0.2-0.8-0.3
		C207.2,49,206.9,49,206.5,49z"/>
	<path class="st0" d="M212.7,47.7h1.7v7.6h-1.7V47.7z"/>
	<path class="st0" d="M223.9,47.7v1.5h-2.3v6.1h-1.7v-6.1h-2.3v-1.5H223.9z"/>
	<path class="st0" d="M231.3,55.3c-0.1-0.3-0.2-0.5-0.3-0.8c-0.1-0.3-0.2-0.6-0.3-0.8h-2.9c-0.1,0.3-0.2,0.6-0.3,0.8
		c-0.1,0.3-0.2,0.5-0.3,0.8h-1.8c0.3-0.8,0.6-1.6,0.8-2.3c0.3-0.7,0.5-1.3,0.7-2c0.2-0.6,0.5-1.2,0.7-1.7c0.2-0.6,0.5-1.1,0.7-1.6
		h1.6c0.2,0.5,0.5,1.1,0.7,1.6c0.2,0.6,0.5,1.1,0.7,1.7c0.2,0.6,0.5,1.3,0.7,2c0.3,0.7,0.5,1.4,0.8,2.3H231.3z M229.3,49.4
		c0,0.1-0.1,0.3-0.2,0.4c-0.1,0.2-0.2,0.4-0.2,0.7c-0.1,0.2-0.2,0.5-0.3,0.8c-0.1,0.3-0.2,0.6-0.4,0.9h2.2c-0.1-0.3-0.2-0.6-0.3-0.9
		c-0.1-0.3-0.2-0.6-0.3-0.8c-0.1-0.2-0.2-0.5-0.3-0.7C229.4,49.7,229.3,49.5,229.3,49.4z"/>
	<path class="st0" d="M241.3,53.8v1.5h-5v-7.6h1.7v6.1H241.3z"/>
	<path class="st0" d="M246.5,54.4c0,0.3-0.1,0.6-0.3,0.7c-0.2,0.2-0.4,0.3-0.7,0.3c-0.3,0-0.5-0.1-0.7-0.3c-0.2-0.2-0.3-0.4-0.3-0.7
		c0-0.3,0.1-0.6,0.3-0.7c0.2-0.2,0.4-0.3,0.7-0.3c0.3,0,0.5,0.1,0.7,0.3C246.4,53.8,246.5,54.1,246.5,54.4z"/>
	<path class="st0" d="M110,47.7h1.7v7.6H110V47.7z"/>
	<path class="st0" d="M120.7,55.3c-0.5-0.9-1-1.7-1.6-2.6c-0.6-0.8-1.2-1.6-1.8-2.4v5h-1.7v-7.6h1.4c0.2,0.2,0.5,0.5,0.8,0.9
		c0.3,0.4,0.6,0.7,0.9,1.1c0.3,0.4,0.6,0.8,0.9,1.2c0.3,0.4,0.6,0.8,0.8,1.2v-4.5h1.7v7.6H120.7z"/>
	<path class="st0" d="M128.1,54c0.2,0,0.4,0,0.6-0.1c0.2,0,0.3-0.1,0.4-0.2c0.1-0.1,0.2-0.2,0.2-0.2c0-0.1,0.1-0.2,0.1-0.3
		c0-0.2-0.1-0.5-0.3-0.6c-0.2-0.2-0.6-0.3-1.2-0.5c-0.2-0.1-0.5-0.2-0.7-0.3c-0.2-0.1-0.5-0.3-0.7-0.4c-0.2-0.2-0.4-0.4-0.5-0.6
		c-0.1-0.2-0.2-0.5-0.2-0.9c0-0.4,0.1-0.7,0.2-0.9c0.1-0.3,0.3-0.5,0.6-0.7c0.2-0.2,0.5-0.3,0.9-0.5c0.3-0.1,0.7-0.2,1.2-0.2
		c0.5,0,0.9,0.1,1.3,0.2c0.4,0.1,0.7,0.2,0.9,0.4l-0.5,1.3c-0.2-0.1-0.4-0.2-0.7-0.3c-0.3-0.1-0.6-0.1-0.9-0.1
		c-0.4,0-0.7,0.1-0.9,0.2c-0.2,0.1-0.3,0.3-0.3,0.5c0,0.1,0,0.3,0.1,0.3c0.1,0.1,0.2,0.2,0.3,0.3c0.1,0.1,0.3,0.1,0.4,0.2
		c0.2,0.1,0.3,0.1,0.5,0.2c0.4,0.1,0.7,0.3,1,0.4c0.3,0.1,0.5,0.3,0.7,0.5c0.2,0.2,0.3,0.4,0.4,0.7c0.1,0.3,0.1,0.6,0.1,0.9
		c0,0.7-0.2,1.3-0.7,1.6c-0.5,0.4-1.2,0.6-2.2,0.6c-0.3,0-0.6,0-0.9-0.1c-0.3,0-0.5-0.1-0.7-0.1c-0.2-0.1-0.4-0.1-0.5-0.2
		c-0.1-0.1-0.3-0.1-0.4-0.2l0.5-1.4c0.2,0.1,0.5,0.2,0.8,0.3C127.2,53.9,127.6,54,128.1,54z"/>
	<path class="st0" d="M136.8,47.6c1.1,0,2,0.2,2.6,0.6c0.6,0.4,0.9,1,0.9,2c0,0.9-0.3,1.6-0.9,2c-0.6,0.4-1.5,0.6-2.6,0.6h-0.5v2.5
		h-1.7v-7.5c0.4-0.1,0.8-0.1,1.2-0.2C136.2,47.6,136.5,47.6,136.8,47.6z M137,49.1c-0.1,0-0.2,0-0.4,0c-0.1,0-0.2,0-0.3,0v2.2h0.5
		c0.6,0,1-0.1,1.3-0.2c0.3-0.2,0.4-0.5,0.4-0.9c0-0.2,0-0.4-0.1-0.5c-0.1-0.1-0.2-0.2-0.3-0.3c-0.1-0.1-0.3-0.1-0.5-0.2
		C137.4,49.1,137.2,49.1,137,49.1z"/>
	<path class="st0" d="M143.8,47.7h1.7v7.6h-1.7V47.7z"/>
	<path class="st0" d="M151.6,47.6c1.1,0,2,0.2,2.6,0.6c0.6,0.4,0.9,1,0.9,1.9c0,0.5-0.1,1-0.4,1.3c-0.2,0.3-0.6,0.6-1.1,0.8
		c0.2,0.2,0.3,0.4,0.5,0.7c0.2,0.2,0.3,0.5,0.5,0.8c0.2,0.3,0.3,0.5,0.5,0.8c0.2,0.3,0.3,0.6,0.4,0.8h-1.9c-0.1-0.2-0.3-0.5-0.4-0.8
		c-0.1-0.3-0.3-0.5-0.4-0.7c-0.1-0.2-0.3-0.5-0.4-0.7c-0.1-0.2-0.3-0.4-0.4-0.6h-0.8v2.8h-1.7v-7.5c0.4-0.1,0.8-0.1,1.1-0.2
		C150.9,47.6,151.3,47.6,151.6,47.6z M151.7,49.1c-0.1,0-0.2,0-0.3,0c-0.1,0-0.2,0-0.3,0v2.1h0.5c0.6,0,1.1-0.1,1.4-0.2
		c0.3-0.2,0.4-0.4,0.4-0.8c0-0.4-0.1-0.6-0.4-0.8C152.7,49.1,152.2,49.1,151.7,49.1z"/>
	<path class="st0" d="M158.8,55.3v-7.6h5.1v1.4h-3.4v1.5h3V52h-3v1.8h3.6v1.4H158.8z"/>
	<path class="st0" d="M174.2,51.5c0,0.7-0.1,1.2-0.3,1.7c-0.2,0.5-0.5,0.9-0.9,1.2c-0.4,0.3-0.8,0.6-1.4,0.7
		c-0.5,0.2-1.1,0.2-1.8,0.2c-0.3,0-0.7,0-1.1,0c-0.4,0-0.8-0.1-1.2-0.2v-7.4c0.4-0.1,0.8-0.1,1.2-0.1c0.4,0,0.8,0,1.1,0
		c0.6,0,1.2,0.1,1.8,0.2c0.5,0.1,1,0.4,1.4,0.7c0.4,0.3,0.7,0.7,0.9,1.2C174.1,50.2,174.2,50.8,174.2,51.5z M169.3,53.9
		c0.1,0,0.2,0,0.3,0c0.1,0,0.2,0,0.4,0c0.8,0,1.5-0.2,1.9-0.6c0.4-0.4,0.6-1,0.6-1.8c0-0.8-0.2-1.4-0.6-1.8c-0.4-0.4-1-0.6-1.9-0.6
		c-0.1,0-0.2,0-0.4,0c-0.1,0-0.2,0-0.3,0V53.9z"/>
	<path class="st0" d="M178.9,54.4c0,0.3-0.1,0.6-0.3,0.7c-0.2,0.2-0.4,0.3-0.7,0.3c-0.3,0-0.5-0.1-0.7-0.3c-0.2-0.2-0.3-0.4-0.3-0.7
		c0-0.3,0.1-0.6,0.3-0.7c0.2-0.2,0.4-0.3,0.7-0.3c0.3,0,0.5,0.1,0.7,0.3C178.8,53.8,178.9,54.1,178.9,54.4z"/>
</g>
</svg>
